P3
# Created by GIMP version 2.10.30 PNM plug-in
21 21
255
255
255
255
255
255
255
255
255
255
255
255
255
255
255
255
255
255
255
255
255
255
255
255
255
255
255
255
255
255
255
255
255
255
255
255
255
255
255
255
255
255
255
255
255
255
255
255
255
236
189
249
207
81
239
230
167
246
255
255
255
255
255
255
255
255
255
255
255
255
255
255
255
255
255
255
255
255
255
255
255
255
255
255
255
255
255
255
255
255
255
255
255
255
255
255
255
255
255
255
255
255
255
255
255
255
255
255
255
255
255
255
196
44
235
190
22
233
192
29
234
255
255
255
255
255
255
255
255
255
255
255
255
255
255
255
183
183
183
64
64
64
159
159
159
255
255
255
250
191
193
242
85
91
248
170
173
255
255
255
183
183
183
64
64
64
159
159
159
255
255
255
255
255
255
190
22
233
190
22
233
190
22
233
255
255
255
255
255
255
255
255
255
255
255
255
255
255
255
24
24
24
0
0
0
8
8
8
255
255
255
239
49
57
237
28
36
238
35
43
255
255
255
24
24
24
0
0
0
8
8
8
255
255
255
255
255
255
190
22
233
190
22
233
190
22
233
255
255
255
255
255
255
255
255
255
255
255
255
255
255
255
0
0
0
0
0
0
0
0
0
255
255
255
237
28
36
237
28
36
237
28
36
255
255
255
0
0
0
0
0
0
0
0
0
255
255
255
255
255
255
190
22
233
190
22
233
190
22
233
255
255
255
255
255
255
255
255
255
255
255
255
255
255
255
0
0
0
0
0
0
0
0
0
255
255
255
237
28
36
237
28
36
237
28
36
255
255
255
0
0
0
0
0
0
0
0
0
255
255
255
255
255
255
190
22
233
190
22
233
190
22
233
255
255
255
255
255
255
255
255
255
255
255
255
255
255
255
0
0
0
0
0
0
0
0
0
255
255
255
237
28
36
237
28
36
237
28
36
255
255
255
0
0
0
0
0
0
0
0
0
159
159
159
255
255
255
190
22
233
190
22
233
190
22
233
230
167
246
255
255
255
255
255
255
255
255
255
255
255
255
0
0
0
0
0
0
0
0
0
255
255
255
237
28
36
237
28
36
237
28
36
255
255
255
8
8
8
0
0
0
0
0
0
8
8
8
255
255
255
192
29
234
190
22
233
190
22
233
192
29
234
255
255
255
255
255
255
255
255
255
255
255
255
0
0
0
0
0
0
0
0
0
255
255
255
237
28
36
237
28
36
237
28
36
246
146
150
135
135
135
0
0
0
0
0
0
0
0
0
255
255
255
224
145
244
190
22
233
190
22
233
190
22
233
255
255
255
255
255
255
255
255
255
255
255
255
0
0
0
0
0
0
0
0
0
255
255
255
238
35
43
237
28
36
237
28
36
237
28
36
183
183
183
0
0
0
0
0
0
0
0
0
255
255
255
236
189
249
190
22
233
190
22
233
190
22
233
255
255
255
255
255
255
255
255
255
255
255
255
0
0
0
0
0
0
0
0
0
255
255
255
246
148
152
237
28
36
245
121
125
255
255
255
24
24
24
0
0
0
0
0
0
0
0
0
255
255
255
196
44
235
190
22
233
190
22
233
190
22
233
255
255
255
255
255
255
255
255
255
255
255
255
0
0
0
0
0
0
0
0
0
159
159
159
255
255
255
255
255
255
255
255
255
159
159
159
0
0
0
0
0
0
0
0
0
104
104
104
255
255
255
190
22
233
190
22
233
190
22
233
217
117
242
255
255
255
255
255
255
255
255
255
255
255
255
8
8
8
0
0
0
0
0
0
0
0
0
0
0
0
0
0
0
0
0
0
0
0
0
0
0
0
0
0
0
0
0
0
255
255
255
255
255
255
190
22
233
190
22
233
190
22
233
255
255
255
255
255
255
255
255
255
255
255
255
255
255
255
135
135
135
0
0
0
0
0
0
0
0
0
0
0
0
0
0
0
0
0
0
0
0
0
0
0
0
0
0
0
104
104
104
255
255
255
236
189
249
190
22
233
190
22
233
190
22
233
255
255
255
255
255
255
255
255
255
255
255
255
255
255
255
255
255
255
135
135
135
0
0
0
0
0
0
0
0
0
0
0
0
0
0
0
0
0
0
88
88
88
247
247
247
255
255
255
255
255
255
196
44
235
190
22
233
190
22
233
190
22
233
255
255
255
255
255
255
255
255
255
236
189
249
198
51
236
198
51
236
230
167
246
255
255
255
255
255
255
255
255
255
255
255
255
255
255
255
255
255
255
255
255
255
255
255
255
255
255
255
236
189
249
190
22
233
190
22
233
190
22
233
217
117
242
255
255
255
255
255
255
255
255
255
198
51
236
190
22
233
190
22
233
190
22
233
190
22
233
190
22
233
190
22
233
190
22
233
190
22
233
190
22
233
190
22
233
190
22
233
190
22
233
190
22
233
190
22
233
190
22
233
190
22
233
255
255
255
255
255
255
255
255
255
255
255
255
224
145
244
190
22
233
190
22
233
190
22
233
190
22
233
190
22
233
190
22
233
190
22
233
190
22
233
190
22
233
190
22
233
190
22
233
190
22
233
190
22
233
190
22
233
190
22
233
217
117
242
255
255
255
255
255
255
255
255
255
255
255
255
255
255
255
224
145
244
190
22
233
190
22
233
190
22
233
190
22
233
190
22
233
190
22
233
190
22
233
190
22
233
190
22
233
190
22
233
190
22
233
190
22
233
190
22
233
217
117
242
255
255
255
255
255
255
255
255
255
255
255
255
255
255
255
255
255
255
255
255
255
255
255
255
255
255
255
255
255
255
255
255
255
255
255
255
255
255
255
255
255
255
255
255
255
255
255
255
255
255
255
255
255
255
255
255
255
255
255
255
255
255
255
255
255
255
255
255
255
255
255
255
255
255
255
255
255
255
255
255
255
255
255
255
255
255
255
255
255
255
255
255
255
255
255
255
255
255
255
255
255
255
255
255
255
255
255
255
255
255
255
255
255
255
255
255
255
255
255
255
255
255
255
255
255
255
255
255
255
255
255
255
255
255
255
255
255
255
